<svg width="39" height="39" viewBox="0 0 39 39" fill="none" xmlns="http://www.w3.org/2000/svg">
<g clip-path="url(#clip0)">
<path d="M30.1641 34.7344C30.5845 34.7344 30.9258 34.3931 30.9258 33.9727C30.9258 33.5522 30.5845 33.2109 30.1641 33.2109C29.7436 33.2109 29.4023 33.5522 29.4023 33.9727C29.4023 34.3931 29.7436 34.7344 30.1641 34.7344Z" fill="white"/>
<path d="M17.5195 34.7344C17.94 34.7344 18.2812 34.3931 18.2812 33.9727C18.2812 33.5522 17.94 33.2109 17.5195 33.2109C17.0991 33.2109 16.7578 33.5522 16.7578 33.9727C16.7578 34.3931 17.0991 34.7344 17.5195 34.7344Z" fill="white"/>
<path d="M38.8387 10.6525C38.6944 10.4674 38.4727 10.3594 38.2383 10.3594H10.8161L9.07993 2.98022C8.83534 1.94298 7.92039 1.21875 6.85547 1.21875H2.28516C1.02505 1.21875 0 2.2438 0 3.50391C0 4.76402 1.02505 5.78906 2.28516 5.78906H5.04549L10.7248 29.926C10.9693 30.9633 11.8843 31.6875 12.9492 31.6875H14.4747C13.9954 32.3245 13.7109 33.116 13.7109 33.9727C13.7109 36.0727 15.4194 37.7812 17.5195 37.7812C19.6196 37.7812 21.3281 36.0727 21.3281 33.9727C21.3281 33.116 21.0437 32.3245 20.5643 31.6875H27.1193C26.6399 32.3245 26.3555 33.116 26.3555 33.9727C26.3555 36.0727 28.064 37.7812 30.1641 37.7812C32.2641 37.7812 33.9727 36.0727 33.9727 33.9727C33.9727 33.116 33.6882 32.3245 33.2089 31.6875H33.2109C34.471 31.6875 35.4961 30.6625 35.4961 29.4023C35.4961 28.1422 34.471 27.1172 33.2109 27.1172H14.7592L14.0421 24.0703H18.5074H18.5089H18.5101H29.6306H29.632H29.6335H34.0018C35.0519 24.0703 35.9638 23.3586 36.2191 22.3392L38.9774 11.3059C39.0342 11.0782 38.983 10.8372 38.8387 10.6525ZM36.12 16.4531H31.2555L31.8268 11.8828H37.2626L36.12 16.4531ZM27.1172 17.9766H29.5297L28.9584 22.5469H24.832V20.2617C24.832 19.841 24.491 19.5 24.0703 19.5C23.6496 19.5 23.3086 19.841 23.3086 20.2617V22.5469H19.1822L18.6109 17.9766H21.0234C21.4442 17.9766 21.7852 17.6356 21.7852 17.2148C21.7852 16.7941 21.4442 16.4531 21.0234 16.4531H18.4205L17.8492 11.8828H23.3086V14.168C23.3086 14.5887 23.6496 14.9297 24.0703 14.9297C24.491 14.9297 24.832 14.5887 24.832 14.168V11.8828H30.2914L29.7201 16.4531H27.1172C26.6965 16.4531 26.3555 16.7941 26.3555 17.2148C26.3555 17.6356 26.6965 17.9766 27.1172 17.9766ZM13.6836 22.5469L12.6082 17.9766H17.0756L17.6469 22.5469H13.6836ZM16.3139 11.8828L16.8852 16.4531H12.2497L11.1747 11.8828H16.3139ZM19.8047 33.9727C19.8047 35.2328 18.7796 36.2578 17.5195 36.2578C16.2594 36.2578 15.2344 35.2328 15.2344 33.9727C15.2344 32.7125 16.2594 31.6875 17.5195 31.6875C18.7796 31.6875 19.8047 32.7125 19.8047 33.9727ZM32.4492 33.9727C32.4492 35.2328 31.4242 36.2578 30.1641 36.2578C28.904 36.2578 27.8789 35.2328 27.8789 33.9727C27.8789 32.7125 28.904 31.6875 30.1641 31.6875C31.4242 31.6875 32.4492 32.7125 32.4492 33.9727ZM33.2109 28.6406C33.6311 28.6406 33.9727 28.9822 33.9727 29.4023C33.9727 29.8225 33.6311 30.1641 33.2109 30.1641H12.9492C12.5942 30.1641 12.2893 29.9225 12.2077 29.5767L6.25204 4.26562H2.28516C1.86502 4.26562 1.52344 3.92404 1.52344 3.50391C1.52344 3.08377 1.86502 2.74219 2.28516 2.74219H6.85547C7.21044 2.74219 7.51543 2.9838 7.59695 3.32954L12.3339 23.4612C12.3342 23.4624 12.3345 23.4636 12.3348 23.4651L13.5526 28.6406H33.2109ZM34.7412 21.9693C34.6561 22.3094 34.352 22.5469 34.0015 22.5469H30.4937L31.065 17.9766H35.7395L34.7412 21.9693Z" fill="white"/>
<path d="M24.0703 16.4531C23.6499 16.4531 23.3086 16.7944 23.3086 17.2148C23.3086 17.6353 23.6499 17.9766 24.0703 17.9766C24.4907 17.9766 24.832 17.6353 24.832 17.2148C24.832 16.7944 24.4907 16.4531 24.0703 16.4531Z" fill="white"/>
</g>
<defs>
<clipPath id="clip0">
<rect width="39" height="39" fill="white"/>
</clipPath>
</defs>
</svg>
