<svg width="25" height="24" viewBox="0 0 25 24" fill="none" xmlns="http://www.w3.org/2000/svg">
<path d="M18.1115 8.52424C18.1115 3.81594 14.2896 0 9.55383 0C4.82529 0 0.97821 3.82403 0.97821 8.52424C0.97821 13.2431 4.82529 17.0819 9.55383 17.0819C11.3519 17.0819 13.118 16.5055 14.5711 15.4522L15.9606 16.8418C15.7671 17.0333 15.6425 17.1565 15.6424 17.1567C15.5574 17.2408 15.5094 17.3551 15.5087 17.4748C15.5079 17.5942 15.5549 17.7091 15.6392 17.7941L20.2073 22.4014C21.1846 23.3781 22.8112 23.2589 23.6349 22.1145C24.2688 21.2349 24.1349 19.9596 23.3249 19.1497L18.8269 14.6124C18.7278 14.5125 18.5876 14.4646 18.4486 14.4829C18.3314 14.4982 18.226 14.5588 18.1539 14.6499C18.134 14.6717 18.0709 14.7379 17.8756 14.9349L16.4818 13.5413C17.5351 12.0884 18.1115 10.3223 18.1115 8.52424ZM16.6004 16.2077L15.2752 14.8823C15.4983 14.6814 15.711 14.4687 15.9119 14.2456L17.2392 15.5725C17.0511 15.7601 16.8363 15.9735 16.6004 16.2077ZM1.87902 8.52424C1.87902 4.32071 5.32197 0.900807 9.55383 0.900807C13.7758 0.900807 17.2107 4.32071 17.2107 8.52424C17.2107 12.7133 13.808 16.1811 9.55383 16.1811C5.32197 16.1811 1.87902 12.7462 1.87902 8.52424ZM18.5112 15.5736L22.6866 19.7854C23.1891 20.2879 23.2825 21.0627 22.9041 21.5882C22.3902 22.3018 21.4119 22.3318 20.8456 21.7658L16.5963 17.4801C17.1364 16.9454 17.9792 16.1097 18.5112 15.5736Z" fill="black"/>
</svg>
