<svg width="148" height="54" viewBox="0 0 148 54" fill="none" xmlns="http://www.w3.org/2000/svg">
<path d="M30.3601 53.1425L15.7337 32.6993H5.94758V53.1456H0.0342172L0 0.746552H15.4724C25.1901 0.746552 33.1223 8.22147 33.1223 17.4539C33.1223 24.2476 28.475 30.0988 22.1044 32.0149L37.6732 53.1425H30.3601ZM15.6684 27.7253C21.9084 27.7253 27.0441 22.9784 27.0441 17.3233C27.0441 11.2761 21.8431 6.59771 15.6684 6.59771H5.91648V27.6942L15.6684 27.7253Z" fill="white"/>
<path d="M43.7514 0.746552H49.6679V53.1425H43.7514V0.746552Z" fill="white"/>
<path d="M57.9547 26.9788C57.9547 12.256 70.1765 0 84.8682 0C91.5965 0.0653239 98.1289 3.15421 102.876 7.93219L99.4292 12.5795C95.6591 8.71296 90.3927 6.01291 84.6411 6.01291C74.1084 6.01291 63.9365 15.1147 63.9365 26.9788C63.9365 38.8117 74.012 47.8793 84.7406 47.8793C90.6571 47.8793 95.6933 45.0828 99.4634 41.378L102.876 46.1249C98.5209 50.4487 92.6355 53.83 84.9024 53.83C70.3383 53.8269 57.9547 41.8322 57.9547 26.9788Z" fill="white"/>
<path d="M88.2557 26.9788C88.2557 12.256 100.477 0 115.169 0C121.897 0.0653239 128.43 3.15421 133.177 7.93219L129.73 12.5795C125.96 8.71296 120.694 6.01291 114.942 6.01291C104.409 6.01291 94.2375 15.1147 94.2375 26.9788C94.2375 38.8117 104.313 47.8793 115.042 47.8793C120.958 47.8793 125.994 45.0828 129.764 41.378L133.177 46.1249C128.822 50.4487 122.936 53.83 115.203 53.83C100.639 53.8269 88.2557 41.8322 88.2557 26.9788Z" fill="white"/>
<path d="M141.604 0.746552H147.52V53.1425H141.604V0.746552Z" fill="white"/>
</svg>
